# xmcd CD database file
#
# Track frame offsets:
#	150
#	13070
#	34882
#	57457
#	76807
#	99532
#	131632
#	154125
#
# Disc length: 2395 seconds
#
# Revision: 0
# Processed by: cddbd v1.5.1PL0 Copyright (c) Steve Scherf et al.
# Submitted via: CDex 1.51
#
DISCID=62095908
DTITLE=laizenzymes - laizenzymes
DYEAR=1997
DGENRE=New Age
TTITLE0=les p'tits bonshommes
TTITLE1=pour vous faire sentir
TTITLE2=moi pis chose (là)
TTITLE3=et si douce ...
TTITLE4=bad b flat
TTITLE5=l'histoire d'une histoire
TTITLE6=vert malade
TTITLE7=comme ...
EXTD=YEAR: 1997
EXTT0=
EXTT1=
EXTT2=
EXTT3=
EXTT4=
EXTT5=
EXTT6=
EXTT7=
PLAYORDER=
